<?xml version="1.0" encoding="utf-8"?>
<!-- Generator: Adobe Illustrator 15.1.0, SVG Export Plug-In . SVG Version: 6.00 Build 0)  -->
<!DOCTYPE svg PUBLIC "-//W3C//DTD SVG 1.1//EN" "http://www.w3.org/Graphics/SVG/1.1/DTD/svg11.dtd">
<svg version="1.1" id="Layer_1" xmlns="http://www.w3.org/2000/svg" xmlns:xlink="http://www.w3.org/1999/xlink" x="0px" y="0px"
	 width="500px" height="500px" viewBox="0 0 500 500" enable-background="new 0 0 500 500" xml:space="preserve">
<g>
	<path id="path16_10_" inkscape:connector-curvature="0" fill="#488590" d="M225.142,194.092
		c-25.64-4.669-45.911,0.219-53.991,14.213c-6.029,10.442-4.306,24.287,4.18,39.088c0.722,1.26,2.329,1.694,3.589,0.973
		c1.26-0.723,1.694-2.328,0.974-3.589c-7.645-13.331-9.131-25.28-4.188-33.843c6.711-11.625,24.793-15.984,48.494-11.668
		c1.43,0.26,2.8-0.688,3.059-2.115C227.518,195.721,226.569,194.352,225.142,194.092L225.142,194.092L225.142,194.092z
		 M188.664,265.381c10.367,11.394,23.836,22.08,39.196,30.947c37.193,21.474,76.788,27.213,96.3,13.908
		c1.199-0.818,1.511-2.455,0.691-3.654c-0.818-1.199-2.454-1.51-3.653-0.69c-17.464,11.907-55.075,6.455-90.709-14.117
		c-14.901-8.603-27.944-18.95-37.937-29.932c-0.977-1.074-2.64-1.153-3.714-0.176C187.766,262.645,187.687,264.307,188.664,265.381
		L188.664,265.381z"/>
	<path id="path18_10_" inkscape:connector-curvature="0" fill="#488590" d="M317.936,262.184
		c16.788-19.834,22.65-39.781,14.586-53.746c-5.934-10.275-18.475-15.701-35.141-15.918c-1.455-0.018-2.645,1.143-2.663,2.596
		c-0.021,1.451,1.142,2.645,2.593,2.662c14.992,0.195,25.797,4.869,30.658,13.289c6.699,11.601,1.471,29.389-14.047,47.719
		c-0.938,1.109-0.799,2.767,0.307,3.707C315.338,263.43,316.998,263.291,317.936,262.184L317.936,262.184z M274.791,194.967
		c-15.179,3.254-31.338,9.613-46.853,18.571c-38.396,22.167-63.44,54.853-59.963,78.553c0.21,1.437,1.548,2.431,2.983,2.22
		c1.438-0.211,2.43-1.547,2.22-2.984c-3.089-21.043,20.651-52.025,57.387-73.234c15.054-8.691,30.698-14.848,45.327-17.982
		c1.418-0.304,2.322-1.702,2.02-3.121C277.607,195.568,276.209,194.664,274.791,194.967L274.791,194.967z"/>
	<path id="path20_10_" inkscape:connector-curvature="0" fill="#488590" d="M212.59,308.521
		c8.779,24.512,23.14,39.602,39.285,39.602c11.777,0,22.674-8.027,31.168-22.162c0.75-1.244,0.347-2.859-0.899-3.607
		c-1.242-0.748-2.86-0.346-3.606,0.898c-7.635,12.703-17.014,19.613-26.662,19.613c-13.414,0-26.221-13.46-34.336-36.115
		c-0.488-1.367-1.992-2.078-3.361-1.589C212.811,305.65,212.102,307.156,212.59,308.521L212.59,308.521L212.59,308.521z
		 M292.768,303.729c4.543-14.521,6.984-31.273,6.984-48.729c0-43.557-15.246-81.105-36.958-90.746
		c-1.329-0.592-2.882,0.008-3.471,1.336c-0.589,1.326,0.009,2.881,1.336,3.469c19.368,8.6,33.835,44.234,33.835,85.941
		c0,16.936-2.363,33.156-6.744,47.156c-0.434,1.387,0.336,2.861,1.723,3.296C290.858,305.887,292.333,305.113,292.768,303.729
		L292.768,303.729z"/>
	<path id="path22_10_" inkscape:connector-curvature="0" fill="#488590" d="M342.284,301.152c0-6.949-5.634-12.583-12.583-12.583
		c-6.95,0-12.584,5.634-12.584,12.583s5.634,12.582,12.584,12.582C336.65,313.734,342.284,308.102,342.284,301.152L342.284,301.152z
		 M337.026,301.152c0,4.045-3.28,7.324-7.325,7.324c-4.046,0-7.326-3.279-7.326-7.324c0-4.047,3.28-7.326,7.326-7.326
		C333.746,293.826,337.026,297.105,337.026,301.152L337.026,301.152z"/>
	<path id="path24_10_" inkscape:connector-curvature="0" fill="#488590" d="M173.869,313.734c6.949,0,12.584-5.633,12.584-12.582
		s-5.635-12.583-12.584-12.583s-12.584,5.634-12.584,12.583S166.92,313.734,173.869,313.734L173.869,313.734z M173.869,308.477
		c-4.045,0-7.326-3.279-7.326-7.324c0-4.047,3.281-7.325,7.326-7.325s7.326,3.278,7.326,7.325
		C181.195,305.197,177.914,308.477,173.869,308.477L173.869,308.477z"/>
	<path id="path26_10_" inkscape:connector-curvature="0" fill="#488590" d="M251.875,177.089c6.949,0,12.584-5.634,12.584-12.583
		c0-6.95-5.635-12.584-12.584-12.584s-12.584,5.634-12.584,12.584C239.291,171.455,244.926,177.089,251.875,177.089L251.875,177.089
		z M251.875,171.83c-4.045,0-7.326-3.279-7.326-7.324c0-4.046,3.281-7.326,7.326-7.326s7.325,3.28,7.325,7.326
		C259.2,168.551,255.92,171.83,251.875,171.83L251.875,171.83z"/>
	<g>
		<g>
			<path fill="#488590" d="M244.222,257c3.894,0,10.267,0,14.16,0h8.833c3.894,0,4.996,2.259,2.448,5.204l-2.232,2.507
				c-2.548,2.945-6.72,7.725-9.271,10.666l-2.22,2.541c-2.552,2.941-6.725,2.932-9.274-0.013l-2.227-2.575
				c-2.549-2.944-6.721-7.764-9.27-10.708l-2.227-2.42c-2.549-2.944-1.449-5.202,2.445-5.202H244.222z"/>
		</g>
		<path fill="#488590" d="M263,262.893c0,3.909-2.709,7.107-6.129,7.107h-10.842c-3.422,0-6.029-3.198-6.029-7.107v-25.667
			c0-3.909,2.607-7.226,6.029-7.226h10.842c3.42,0,6.129,3.316,6.129,7.226V262.893z"/>
	</g>
</g>
</svg>
